{
	"asset":{
		"generator":"Khronos glTF Blender I/O v3.6.27",
		"version":"2.0"
	},
	"extensionsUsed":[
		"KHR_materials_specular",
		"KHR_materials_ior"
	],
	"scene":0,
	"scenes":[
		{
			"name":"Scene",
			"nodes":[
				0
			]
		}
	],
	"nodes":[
		{
			"mesh":0,
			"name":"DAngel-Melee_0",
			"rotation":[
				0.7071068286895752,
				0,
				0,
				0.7071068286895752
			]
		}
	],
	"materials":[
		{
			"doubleSided":true,
			"extensions":{
				"KHR_materials_specular":{
					"specularColorFactor":[
						0,
						0,
						0
					]
				},
				"KHR_materials_ior":{
					"ior":1.4500000476837158
				}
			},
			"name":"WingsDarkAngelBak",
			"pbrMetallicRoughness":{
				"baseColorTexture":{
					"index":0
				},
				"metallicFactor":0
			}
		},
		{
			"doubleSided":true,
			"extensions":{
				"KHR_materials_specular":{
					"specularColorFactor":[
						0,
						0,
						0
					]
				},
				"KHR_materials_ior":{
					"ior":1.4500000476837158
				}
			},
			"name":"BackDarkAngelBak",
			"pbrMetallicRoughness":{
				"baseColorTexture":{
					"index":1
				},
				"metallicFactor":0
			}
		},
		{
			"doubleSided":true,
			"extensions":{
				"KHR_materials_specular":{
					"specularColorFactor":[
						0,
						0,
						0
					]
				},
				"KHR_materials_ior":{
					"ior":1.4500000476837158
				}
			},
			"name":"FrontDarkAngelFrnt",
			"pbrMetallicRoughness":{
				"baseColorTexture":{
					"index":2
				},
				"metallicFactor":0
			}
		},
		{
			"doubleSided":true,
			"extensions":{
				"KHR_materials_specular":{
					"specularColorFactor":[
						0,
						0,
						0
					]
				},
				"KHR_materials_ior":{
					"ior":1.4500000476837158
				}
			},
			"name":"SwordDarkAngelFrnt",
			"pbrMetallicRoughness":{
				"baseColorTexture":{
					"index":3
				},
				"metallicFactor":0
			}
		}
	],
	"meshes":[
		{
			"name":"DAngel-Melee_0",
			"primitives":[
				{
					"attributes":{
						"POSITION":0,
						"NORMAL":1,
						"TEXCOORD_0":2
					},
					"indices":3,
					"material":0
				},
				{
					"attributes":{
						"POSITION":4,
						"NORMAL":5,
						"TEXCOORD_0":6
					},
					"indices":7,
					"material":1
				},
				{
					"attributes":{
						"POSITION":8,
						"NORMAL":9,
						"TEXCOORD_0":10
					},
					"indices":11,
					"material":2
				},
				{
					"attributes":{
						"POSITION":12,
						"NORMAL":13,
						"TEXCOORD_0":14
					},
					"indices":15,
					"material":3
				}
			]
		}
	],
	"textures":[
		{
			"sampler":0,
			"source":0
		},
		{
			"sampler":0,
			"source":0
		},
		{
			"sampler":0,
			"source":1
		},
		{
			"sampler":0,
			"source":1
		}
	],
	"images":[
		{
			"bufferView":4,
			"mimeType":"image/png",
			"name":"DarkAngelBak"
		},
		{
			"bufferView":13,
			"mimeType":"image/png",
			"name":"DarkAngelFrnt"
		}
	],
	"accessors":[
		{
			"bufferView":0,
			"componentType":5126,
			"count":16,
			"max":[
				0.4268690049648285,
				-0.03104499913752079,
				-0.4947800040245056
			],
			"min":[
				-0.4365699887275696,
				-0.28910699486732483,
				-0.6791099905967712
			],
			"type":"VEC3"
		},
		{
			"bufferView":1,
			"componentType":5126,
			"count":16,
			"type":"VEC3"
		},
		{
			"bufferView":2,
			"componentType":5126,
			"count":16,
			"type":"VEC2"
		},
		{
			"bufferView":3,
			"componentType":5123,
			"count":30,
			"type":"SCALAR"
		},
		{
			"bufferView":5,
			"componentType":5126,
			"count":85,
			"max":[
				0.21149399876594543,
				0.11059799790382385,
				0
			],
			"min":[
				-0.21537500619888306,
				-0.12223999947309494,
				-0.6034370064735413
			],
			"type":"VEC3"
		},
		{
			"bufferView":6,
			"componentType":5126,
			"count":85,
			"type":"VEC3"
		},
		{
			"bufferView":7,
			"componentType":5126,
			"count":85,
			"type":"VEC2"
		},
		{
			"bufferView":8,
			"componentType":5123,
			"count":234,
			"type":"SCALAR"
		},
		{
			"bufferView":9,
			"componentType":5126,
			"count":115,
			"max":[
				0.21149399876594543,
				0.11447799950838089,
				0
			],
			"min":[
				-0.21537500619888306,
				-0.09701559692621231,
				-0.6034370064735413
			],
			"type":"VEC3"
		},
		{
			"bufferView":10,
			"componentType":5126,
			"count":115,
			"type":"VEC3"
		},
		{
			"bufferView":11,
			"componentType":5126,
			"count":115,
			"type":"VEC2"
		},
		{
			"bufferView":12,
			"componentType":5123,
			"count":372,
			"type":"SCALAR"
		},
		{
			"bufferView":14,
			"componentType":5126,
			"count":7,
			"max":[
				-0.17074799537658691,
				0.2600019872188568,
				-0.24253900349140167
			],
			"min":[
				-0.32015201449394226,
				0.09119469672441483,
				-0.48701900243759155
			],
			"type":"VEC3"
		},
		{
			"bufferView":15,
			"componentType":5126,
			"count":7,
			"type":"VEC3"
		},
		{
			"bufferView":16,
			"componentType":5126,
			"count":7,
			"type":"VEC2"
		},
		{
			"bufferView":17,
			"componentType":5123,
			"count":15,
			"type":"SCALAR"
		}
	],
	"bufferViews":[
		{
			"buffer":0,
			"byteLength":192,
			"byteOffset":0,
			"target":34962
		},
		{
			"buffer":0,
			"byteLength":192,
			"byteOffset":192,
			"target":34962
		},
		{
			"buffer":0,
			"byteLength":128,
			"byteOffset":384,
			"target":34962
		},
		{
			"buffer":0,
			"byteLength":60,
			"byteOffset":512,
			"target":34963
		},
		{
			"buffer":0,
			"byteLength":36451,
			"byteOffset":572
		},
		{
			"buffer":0,
			"byteLength":1020,
			"byteOffset":37024,
			"target":34962
		},
		{
			"buffer":0,
			"byteLength":1020,
			"byteOffset":38044,
			"target":34962
		},
		{
			"buffer":0,
			"byteLength":680,
			"byteOffset":39064,
			"target":34962
		},
		{
			"buffer":0,
			"byteLength":468,
			"byteOffset":39744,
			"target":34963
		},
		{
			"buffer":0,
			"byteLength":1380,
			"byteOffset":40212,
			"target":34962
		},
		{
			"buffer":0,
			"byteLength":1380,
			"byteOffset":41592,
			"target":34962
		},
		{
			"buffer":0,
			"byteLength":920,
			"byteOffset":42972,
			"target":34962
		},
		{
			"buffer":0,
			"byteLength":744,
			"byteOffset":43892,
			"target":34963
		},
		{
			"buffer":0,
			"byteLength":36448,
			"byteOffset":44636
		},
		{
			"buffer":0,
			"byteLength":84,
			"byteOffset":81084,
			"target":34962
		},
		{
			"buffer":0,
			"byteLength":84,
			"byteOffset":81168,
			"target":34962
		},
		{
			"buffer":0,
			"byteLength":56,
			"byteOffset":81252,
			"target":34962
		},
		{
			"buffer":0,
			"byteLength":30,
			"byteOffset":81308,
			"target":34963
		}
	],
	"samplers":[
		{
			"magFilter":9729,
			"minFilter":9987
		}
	],
	"buffers":[
		{
			"byteLength":81340,
			"uri":"data:application/octet-stream;base64,"
		}
	]
}
